<svg width="60" height="24" fill="none" xmlns="http://www.w3.org/2000/svg"><rect width="60" height="24" rx="12" fill="url('#paint0_linear_409_10355')"/><path d="M4.026 11.774c.242 3.347 3.175 6.07 6.685 6.22 2.476.103 4.691-1.014 6.02-2.775.55-.722.255-1.203-.664-1.04-.45.078-.913.11-1.396.09-3.282-.13-5.967-2.787-5.98-5.926a5.624 5.624 0 0 1 .503-2.372c.362-.805-.074-1.189-.913-.844-2.658 1.085-4.476 3.678-4.255 6.647Z" stroke="#fff" stroke-linecap="round" stroke-linejoin="round"/><path d="M41.648 5.648c3.522-3.521 9.22-3.532 12.728-.024 3.508 3.508 3.497 9.206-.024 12.728-3.522 3.521-9.22 3.532-12.728.024-3.508-3.508-3.497-9.206.024-12.728Z" fill="#fff"/><path d="M53.176 6.574c2.88 3.077 2.869 8.077-.024 11.168" stroke="url('#paint1_linear_409_10355')" stroke-width="1.2" stroke-linecap="round"/><defs><linearGradient id="paint0_linear_409_10355" x1="7.329" y1="1.715" x2="17.73" y2="34.081" gradientUnits="userSpaceOnUse"><stop stop-color="#FFC226"/><stop offset="1" stop-color="#F84119"/></linearGradient><linearGradient id="paint1_linear_409_10355" x1="53.418" y1="7.372" x2="57.225" y2="8.296" gradientUnits="userSpaceOnUse"><stop stop-color="#FFC226"/><stop offset="1" stop-color="#F84119"/></linearGradient></defs></svg>