<svg width="60" height="24" fill="none" xmlns="http://www.w3.org/2000/svg"><rect width="60" height="24" rx="12" fill="url('#paint0_linear_405_7278')"/><path d="M18.352 5.648c-3.522-3.521-9.22-3.532-12.728-.024-3.508 3.508-3.497 9.206.024 12.728 3.522 3.521 9.22 3.532 12.728.024 3.508-3.508 3.497-9.206-.024-12.728Z" fill="#fff"/><path d="M6.823 6.574c-2.88 3.077-2.869 8.077.024 11.168" stroke="url('#paint1_linear_405_7278')" stroke-width="1.2" stroke-linecap="round"/><path d="M49 17a5 5 0 1 0 0-10 5 5 0 0 0 0 10Z" stroke="#fff" stroke-linecap="round" stroke-linejoin="round"/><path d="m53.907 7.093.091-.091m-9.996 9.996.091-.091M49 5.056V5m0 14v-.056M42.056 12H42m14 0h-.056M44.093 7.093l-.091-.091m9.996 9.996-.091-.091" stroke="#fff" stroke-width="1.5" stroke-linecap="round" stroke-linejoin="round"/><defs><linearGradient id="paint0_linear_405_7278" x1="7.329" y1="1.715" x2="17.73" y2="34.081" gradientUnits="userSpaceOnUse"><stop stop-color="#FFC226"/><stop offset="1" stop-color="#F84119"/></linearGradient><linearGradient id="paint1_linear_405_7278" x1="6.581" y1="7.372" x2="2.774" y2="8.296" gradientUnits="userSpaceOnUse"><stop stop-color="#FFC226"/><stop offset="1" stop-color="#F84119"/></linearGradient></defs></svg>